<?xml version="1.0"?>
<svg width="640" height="480" xmlns="http://www.w3.org/2000/svg" xmlns:svg="http://www.w3.org/2000/svg" xmlns:xlink="http://www.w3.org/1999/xlink">
 <!-- Created with SVG-edit - https://github.com/SVG-Edit/svgedit-->
 <defs>
  <symbol height="64" id="svg_1" viewBox="0 0 64 64" width="64" xmlns="http://www.w3.org/2000/svg">
   <title>play2</title>
   <path d="m32,0c-17.673,0 -32,14.327 -32,32s14.327,32 32,32s32,-14.327 32,-32s-14.327,-32 -32,-32zm0,58c-14.359,0 -26,-11.641 -26,-26s11.641,-26 26,-26s26,11.641 26,26s-11.641,26 -26,26zm-8,-40l24,14l-24,14l0,-28z" fill="#fff"/>
  </symbol>
 </defs>
 <g class="layer">
  <title>Layer 1</title>
  <use id="svg_2" transform="matrix(0.709877 0 0 0.709877 -0.716049 -0.716049)" x="0" xlink:href="#svg_1" y="0"/>
  <g id="svg_3"/>
 </g>
</svg>